Coordinates
version=1
nRows=4
nColumns=40
inDegrees=yes

Units are S.I. units (second, meters, Newtons, ...)
If the header above contains a line with 'inDegrees', this indicates whether rotational values are in degrees (yes) or radians (no).

endheader
time	pelvis_tilt	pelvis_list	pelvis_rotation	pelvis_tx	pelvis_ty	pelvis_tz	hip_flexion_r	hip_adduction_r	hip_rotation_r	knee_angle_r	knee_angle_r_beta	ankle_angle_r	subtalar_angle_r	mtp_angle_r	hip_flexion_l	hip_adduction_l	hip_rotation_l	knee_angle_l	knee_angle_l_beta	ankle_angle_l	subtalar_angle_l	mtp_angle_l	lumbar_extension	lumbar_bending	lumbar_rotation	arm_flex_r	arm_add_r	arm_rot_r	elbow_flex_r	pro_sup_r	wrist_flex_r	wrist_dev_r	arm_flex_l	arm_add_l	arm_rot_l	elbow_flex_l	pro_sup_l	wrist_flex_l	wrist_dev_l
      7.29999999999999982236	      1.05643081777537228838	     -4.47724534777225713356	   -168.60353970763722486481	      0.32991202613480724581	      0.69554071134806949583	     -0.60592120253396253293	     60.91090873078830725262	    -22.64776317134069216763	      2.92862885860961474904	     84.51978155573783624277	      1.47514847121400038965	     28.68403793804091606034	      0.00000000000000000000	      0.00000000000000000000	     61.84751669180742794651	     -2.75271519180522394876	      1.06196586071953902319	     82.80297302916903845471	      1.44518450979906232234	     23.17374039959792497712	      0.00000000000000000000	      0.00000000000000000000	    -60.25275763823592001245	      7.04542878084431389851	    -11.34037722687597593563	      0.00000000000000000000	    -10.21983732199179861766	      0.00000000000000000000	     77.35606234611685749769	     43.97073897935304387374	      0.00000000000000000000	      0.00000000000000000000	      0.00000000000000000000	    -10.21983732199179861766	      0.00000000000000000000	     77.35606234611685749769	     43.97073897935304387374	      0.00000000000000000000	      0.00000000000000000000
      7.30499999999999971578	      1.13894098210225713785	     -4.36605782359545546711	   -168.50828117564444141863	      0.32958101072372125717	      0.69579314075875242640	     -0.60538215074167467389	     60.86930736294992527746	    -22.73339194331899904000	      2.73299183031586601089	     84.43566372990235890938	      1.47368033819355237490	     28.71339428624818879143	      0.00000000000000000000	      0.00000000000000000000	     61.92198685563138838006	     -2.66801793345912097166	      1.21351440705441304679	     82.77813759992810105359	      1.44475104978766188957	     23.20489330355576029774	      0.00000000000000000000	      0.00000000000000000000	    -60.16509652900111859708	      7.23343428050466030754	    -11.22161297722098360907	      0.00000000000000000000	    -10.26401222307771377018	      0.00000000000000000000	     77.31618597969135464609	     44.01020584726385465046	      0.00000000000000000000	      0.00000000000000000000	      0.00000000000000000000	    -10.26401222307771377018	      0.00000000000000000000	     77.31618597969135464609	     44.01020584726385465046	      0.00000000000000000000	      0.00000000000000000000
      7.30999999999999960920	      1.03592744000233816237	     -4.55770135923586749982	   -168.69972280244823537032	      0.32915636102142137309	      0.69676976514217936476	     -0.60548567127343866368	     60.69742852724719739399	    -22.66702212323229659319	      2.94366118810456400823	     84.28650742481944746487	      1.47107706956974637613	     28.73540212583001363100	      0.00000000000000000000	      0.00000000000000000000	     61.55297941176046805367	     -2.77404389667201023428	      0.86671698538416785951	     82.57432335957712155050	      1.44119382023108633106	     23.31928818466176878133	      0.00000000000000000000	      0.00000000000000000000	    -60.38578185926195374122	      7.01341116959687216337	    -11.27304138778032971402	      0.00000000000000000000	    -10.29090621888719603305	      0.00000000000000000000	     77.29220275029122433352	     44.03318316680302757504	      0.00000000000000000000	      0.00000000000000000000	      0.00000000000000000000	    -10.29090621888719603305	      0.00000000000000000000	     77.29220275029122433352	     44.03318316680302757504	      0.00000000000000000000	      0.00000000000000000000
      7.31500000000000039080	      1.13084185141251714057	     -4.44788514643330934462	   -168.63054024347039216991	      0.32886162972121846249	      0.69706390439998955344	     -0.60500638565658371171	     60.67767394940517533541	    -22.70811014130617166984	      2.79695534366881215504	     84.19019398190937408799	      1.46939608287703404876	     28.72415719703505132543	      0.00000000000000000000	      0.00000000000000000000	     61.63486064047460644133	     -2.71926979966222237550	      1.00370942423892151041	     82.54398249484916050278	      1.44066427224368132087	     23.32734438279056377041	      0.00000000000000000000	      0.00000000000000000000	    -60.30866552180569328812	      7.17045946775314924082	    -11.19085542254325105205	      0.00000000000000000000	    -10.33736705220529472626	      0.00000000000000000000	     77.25059049535913402451	     44.07358091215551354480	      0.00000000000000000000	      0.00000000000000000000	      0.00000000000000000000	    -10.33736705220529472626	      0.00000000000000000000	     77.25059049535913402451	     44.07358091215551354480	      0.00000000000000000000	      0.00000000000000000000
